<svg xmlns="http://www.w3.org/2000/svg" version="1.1" xmlns:xlink="http://www.w3.org/1999/xlink" xmlns:svgjs="http://svgjs.dev/svgjs" width="1000" height="623" viewBox="0 0 1000 623"><g transform="matrix(1,0,0,1,-0.606058249394664,0.2522267206477409)"><svg viewBox="0 0 396 247" data-background-color="#ffffff" preserveAspectRatio="xMidYMid meet" height="623" width="1000" xmlns="http://www.w3.org/2000/svg" xmlns:xlink="http://www.w3.org/1999/xlink"><defs></defs><g id="tight-bounds" transform="matrix(1,0,0,1,0.2399990667602765,-0.09999999999999432)"><svg viewBox="0 0 395.52 247.2" height="247.2" width="395.52"><g><svg></svg></g><g><svg viewBox="0 0 395.52 247.2" height="247.2" width="395.52"><g><path d="M239.526 77.42c0-9.508-3.667-17.77-11.002-24.788-7.38-7.018-17.748-10.526-31.104-10.526-11.319 0-20.26 2.309-26.825 6.927-6.565 4.663-9.847 10.956-9.847 18.879 0 4.075 0.792 7.742 2.377 11.002 0.897 1.87 2.177 3.624 3.842 5.262l-50.582 0c-0.759-4.405-1.138-9.147-1.138-14.227v-2.037c0-9.734 1.992-18.744 5.976-27.029 3.939-8.24 9.485-15.416 16.639-21.528 7.108-6.112 15.71-10.866 25.806-14.262 10.051-3.396 21.302-5.093 33.752-5.093 14.035 0 26.486 1.969 37.352 5.908 10.866 3.984 19.989 9.372 27.369 16.163 7.335 6.791 12.881 14.601 16.638 23.43 3.713 8.829 5.569 18.11 5.569 27.844v10.831h-44.822zM288.423 170.459v4.075c0 11.092-1.969 21.098-5.909 30.017-3.984 8.964-9.711 16.616-17.181 22.954-7.47 6.338-16.525 11.205-27.165 14.602-10.64 3.396-22.637 5.093-35.994 5.093-15.62 0-29.361-2.218-41.222-6.655-11.907-4.392-21.822-10.504-29.746-18.337-7.923-7.787-13.922-16.955-17.997-27.504-3.773-9.725-5.799-20.285-6.078-31.68l44.952 0c0.841 12.039 4.929 21.807 12.264 29.303 8.24 8.512 21.075 12.767 38.506 12.768 13.582 0 23.656-2.943 30.221-8.829 6.565-5.886 9.847-12.903 9.848-21.053 0-3.848-0.679-7.538-2.038-11.069-0.147-0.377-0.306-0.75-0.476-1.12l47.718 0c0.198 2.402 0.296 4.88 0.297 7.435z" fill="#ef86c1" data-fill-palette-color="tertiary"></path></g><g transform="matrix(1,0,0,1,0,96.82)"><svg viewBox="0 0 395.52 53.56" height="53.56" width="395.52"><g><svg viewBox="0 0 395.52 53.56" height="53.56" width="395.52"><g><svg viewBox="0 0 395.52 53.56" height="53.56" width="395.52"><g><svg viewBox="0 0 395.52 53.56" height="53.56" width="395.52"><g><svg viewBox="0 0 395.52 53.56" height="53.56" width="395.52"><g transform="matrix(1,0,0,1,0,0)"><svg width="395.52" viewBox="1.7999999523162842 -35.70000076293945 268.7799987792969 36.400001525878906" height="53.56" data-palette-color="#ef86c1"><path d="M21.3-23.1L21.3-24.3Q21.3-26.4 19.68-27.95 18.05-29.5 15.1-29.5L15.1-29.5Q12.6-29.5 11.15-28.48 9.7-27.45 9.7-25.7L9.7-25.7Q9.7-24.8 10.05-24.08 10.4-23.35 11.28-22.78 12.15-22.2 13.58-21.75 15-21.3 17.2-20.9L17.2-20.9Q22.7-19.9 25.6-17.55 28.5-15.2 28.5-10.6L28.5-10.6 28.5-10Q28.5-7.55 27.63-5.58 26.75-3.6 25.1-2.2 23.45-0.8 21.1-0.05 18.75 0.7 15.8 0.7L15.8 0.7Q12.35 0.7 9.73-0.28 7.1-1.25 5.35-2.98 3.6-4.7 2.7-7.03 1.8-9.35 1.8-12.1L1.8-12.1 1.8-13.6 8.4-13.6 8.4-12.4Q8.4-9.25 10.23-7.38 12.05-5.5 15.9-5.5L15.9-5.5Q18.9-5.5 20.35-6.8 21.8-8.1 21.8-9.9L21.8-9.9Q21.8-10.75 21.5-11.53 21.2-12.3 20.45-12.93 19.7-13.55 18.4-14.05 17.1-14.55 15.1-14.9L15.1-14.9Q12.45-15.35 10.25-16.07 8.05-16.8 6.43-18 4.8-19.2 3.9-21 3-22.8 3-25.4L3-25.4 3-25.7Q3-27.85 3.88-29.68 4.75-31.5 6.33-32.85 7.9-34.2 10.13-34.95 12.35-35.7 15.1-35.7L15.1-35.7Q18.2-35.7 20.6-34.83 23-33.95 24.63-32.45 26.25-30.95 27.08-29 27.9-27.05 27.9-24.9L27.9-24.9 27.9-23.1 21.3-23.1ZM40.9-12.9L40.9 0 34.6 0 34.6-35 40.9-35 40.9-20.8 41.8-20.8Q42.75-23.05 44.6-24.28 46.45-25.5 49.15-25.5L49.15-25.5Q51-25.5 52.55-24.9 54.1-24.3 55.25-23.1 56.4-21.9 57.05-20.03 57.7-18.15 57.7-15.6L57.7-15.6 57.7 0 51.4 0 51.4-14.1Q51.4-16.75 50.12-18.28 48.85-19.8 46.45-19.8L46.45-19.8Q43.65-19.8 42.27-17.93 40.9-16.05 40.9-12.9L40.9-12.9ZM89.4-12.7L89.4-12.1Q89.4-9 88.35-6.63 87.3-4.25 85.5-2.63 83.7-1 81.37-0.15 79.05 0.7 76.5 0.7L76.5 0.7Q73.95 0.7 71.62-0.15 69.3-1 67.5-2.63 65.7-4.25 64.65-6.63 63.6-9 63.6-12.1L63.6-12.1 63.6-12.7Q63.6-15.75 64.65-18.13 65.7-20.5 67.5-22.15 69.3-23.8 71.62-24.65 73.95-25.5 76.5-25.5L76.5-25.5Q79.05-25.5 81.37-24.65 83.7-23.8 85.5-22.15 87.3-20.5 88.35-18.13 89.4-15.75 89.4-12.7L89.4-12.7ZM76.5-5.3L76.5-5.3Q77.85-5.3 79.05-5.75 80.25-6.2 81.15-7.05 82.05-7.9 82.57-9.13 83.1-10.35 83.1-11.9L83.1-11.9 83.1-12.9Q83.1-14.45 82.57-15.68 82.05-16.9 81.15-17.75 80.25-18.6 79.05-19.05 77.85-19.5 76.5-19.5L76.5-19.5Q75.15-19.5 73.95-19.05 72.75-18.6 71.85-17.75 70.95-16.9 70.42-15.68 69.9-14.45 69.9-12.9L69.9-12.9 69.9-11.9Q69.9-10.35 70.42-9.13 70.95-7.9 71.85-7.05 72.75-6.2 73.95-5.75 75.15-5.3 76.5-5.3ZM94.49-18.8L94.49-24.8 104.99-24.8 104.99-21.2 105.89-21.2Q106.59-23.25 108.27-24.38 109.94-25.5 112.29-25.5L112.29-25.5Q115.99-25.5 118.24-23.18 120.49-20.85 120.49-16.1L120.49-16.1 120.49-15 113.99-14.4 113.99-15.1Q113.99-17.15 112.94-18.38 111.89-19.6 109.79-19.6L109.79-19.6Q107.69-19.6 106.49-18.15 105.29-16.7 105.29-14L105.29-14 105.29-6 110.99-6 110.99 0 93.89 0 93.89-6 98.99-6 98.99-18.8 94.49-18.8ZM125.59-18.8L125.59-24.8 132.94-24.8 132.94-35 139.24-35 139.24-24.8 148.19-24.8 148.19-18.8 139.24-18.8 139.24-7.5Q139.24-6 140.59-6L140.59-6 147.29-6 147.29 0 136.79 0Q135.09 0 134.02-1.1 132.94-2.2 132.94-3.9L132.94-3.9 132.94-18.8 125.59-18.8ZM180.64-10.35L162.44-10.35Q162.49-9.25 162.96-8.33 163.44-7.4 164.26-6.73 165.09-6.05 166.16-5.68 167.24-5.3 168.44-5.3L168.44-5.3Q170.79-5.3 172.04-6.13 173.29-6.95 173.84-8.1L173.84-8.1 179.24-5.1Q178.79-4.15 177.99-3.13 177.19-2.1 175.91-1.25 174.64-0.4 172.81 0.15 170.99 0.7 168.54 0.7L168.54 0.7Q165.74 0.7 163.44-0.2 161.14-1.1 159.46-2.8 157.79-4.5 156.86-6.95 155.94-9.4 155.94-12.5L155.94-12.5 155.94-12.8Q155.94-15.65 156.91-18 157.89-20.35 159.59-22 161.29-23.65 163.56-24.58 165.84-25.5 168.44-25.5L168.44-25.5Q171.64-25.5 173.94-24.38 176.24-23.25 177.74-21.53 179.24-19.8 179.94-17.73 180.64-15.65 180.64-13.7L180.64-13.7 180.64-10.35ZM168.39-19.8L168.39-19.8Q165.99-19.8 164.49-18.57 162.99-17.35 162.54-15.75L162.54-15.75 174.24-15.75Q173.94-17.5 172.36-18.65 170.79-19.8 168.39-19.8ZM193.78-12.9L193.78 0 187.49 0 187.49-24.8 193.78-24.8 193.78-21.1 194.69-21.1Q195.53-23.2 197.44-24.35 199.34-25.5 201.89-25.5L201.89-25.5Q203.69-25.5 205.26-24.93 206.84-24.35 208.04-23.15 209.24-21.95 209.91-20.1 210.59-18.25 210.59-15.7L210.59-15.7 210.59 0 204.29 0 204.29-14.1Q204.29-16.75 203.01-18.28 201.74-19.8 199.34-19.8L199.34-19.8Q196.53-19.8 195.16-17.93 193.78-16.05 193.78-12.9L193.78-12.9ZM217.78-28.7L217.78-35 241.18-35 241.18-28.7 232.78-28.7 232.78-6.3 241.18-6.3 241.18 0 217.78 0 217.78-6.3 226.18-6.3 226.18-28.7 217.78-28.7ZM247.98-18.8L247.98-24.8 255.33-24.8 255.33-35 261.63-35 261.63-24.8 270.58-24.8 270.58-18.8 261.63-18.8 261.63-7.5Q261.63-6 262.98-6L262.98-6 269.68-6 269.68 0 259.18 0Q257.48 0 256.4-1.1 255.33-2.2 255.33-3.9L255.33-3.9 255.33-18.8 247.98-18.8Z" opacity="1" transform="matrix(1,0,0,1,0,0)" fill="#ef86c1" class="undefined-text-0" data-fill-palette-color="primary" id="text-0"></path></svg></g></svg></g></svg></g></svg></g><g></g></svg></g></svg></g></svg></g></svg><rect width="395.52" height="247.2" fill="none" stroke="none" visibility="hidden"></rect></g></svg></g></svg>